<svg width="256" height="256" version="1.1" viewBox="0 0 256 256" xmlns="http://www.w3.org/2000/svg">
<style>.st0{fill:#00bef2}.st1{fill:#fff;stroke:#fff;stroke-width:1.2357;stroke-linecap:round;stroke-linejoin:round}</style>
<path class="st0" d="m127.86-2.976e-6c.27138 0 .54276.33922.94982.94982.33923.54276 28.902 34.804 63.502 76.121 34.601 41.317 62.824 75.307 62.688 75.511-.0678.20353-27.613 22.796-61.196 50.137-33.583 27.341-62.146 50.612-63.435 51.697-2.2389 1.8318-2.3746 1.8996-3.1887 1.0855-.47491-.47491-29.105-23.881-63.638-52.037-34.533-28.155-62.688-51.358-62.553-51.697.13569-.33923 28.495-34.194 63.163-75.307 34.669-41.114 63.027-75.104 63.163-75.647.13569-.54276.33922-.81413.54275-.81413z" stroke-width=".67844"/>
<path class="st1" d="m123.18 215.27c-3.935-1.4247-8.6841-5.4954-10.652-9.2947-2.4424-4.6813-2.2389-12.008.47491-17.843 2.1032-4.342 2.1032-4.4777.74629-5.4954-.74629-.54275-9.7696-5.5632-19.946-11.059-10.177-5.4954-19.064-10.312-19.675-10.652-.81413-.47491-2.171 0-4.6134 1.5604-7.9378 5.0205-16.215 4.4777-22.728-1.5604-4.6813-4.342-6.0382-7.395-6.0382-13.637 0-6.0382 1.2212-9.159 5.0883-13.026 5.224-5.224 12.212-6.988 18.929-4.7491 3.6636 1.2212 3.7314 1.2212 6.0382-.54276 2.7138-2.0353 24.492-21.914 35.008-31.887l7.2594-6.9201-2.171-4.5456c-4.4099-9.159-2.171-19.336 5.5632-25.442 4.2064-3.3244 7.3272-4.342 13.365-4.342 14.112 0 23.949 14.79 18.657 28.02-1.4247 3.6636-1.4247 3.7314-.0678 5.9703 1.1534 1.9675 20.76 25.645 31.141 37.722 1.8318 2.1032 3.8671 3.7993 4.5456 3.7993s2.9852-.67845 5.1562-1.4926c10.109-4.0028 20.76.47491 24.967 10.516 2.7138 6.4452.33923 15.129-5.4276 20.353-4.0707 3.6636-7.0558 4.817-12.483 4.817-3.7993 0-5.224-.40707-9.2268-2.5781-2.9852-1.6283-5.2919-2.4424-6.2417-2.171-1.6283.40707-26.663 17.572-32.226 22.049-3.3922 2.7816-3.6636 3.7993-1.8996 7.9378 1.6961 4.0707 1.4926 10.448-.40707 14.451-2.1032 4.4099-7.3272 8.8198-11.873 10.177-4.6134 1.289-7.395 1.289-11.262-.13569zm1.1534-74.765v-38.671l-2.171-2.9852c-1.2212-1.6283-2.3746-2.9852-2.5781-2.9852-.88198 0-44.709 39.825-44.709 40.639 0 .20353.67844 2.2389 1.4926 4.4099.81413 2.2389 1.4247 5.4276 1.3569 7.2594-.06784 1.8318-.06784 3.8671-.06784 4.5456.06784 1.5604 14.722 10.923 36.704 23.61 6.0382 3.5279 8.1413 4.4099 8.8876 3.7993.88198-.74629 1.0855-8.277 1.0855-39.621zm18.589 34.194c29.037-18.25 34.465-21.914 34.804-23.271.20353-.81413.47491-4.0028.54276-7.1915l.20353-5.6989-14.79-17.572c-15.876-18.793-21.71-25.17-23.067-25.17-.47491 0-2.8495 1.3569-5.2919 2.9852l-4.4777 2.9852.20353 38.603c.20353 34.601.47491 40.435 1.764 40.435.13569.0678 4.7491-2.7138 10.109-6.106z"/>
</svg>
