<?xml version="1.0" encoding="UTF-8"?>
<svg width="100" height="100" version="1.1" viewBox="0 0 100 100" xmlns="http://www.w3.org/2000/svg">
 <switch>
  <g>
   <symbol id="a" viewBox="-20 -20 40 40">
    <path d="m10.22 20-16.33-16.16-9.83 7.41-4.06-1.35v-19.8l4.05-1.36 9.83 7.41 16.34-16.15 9.78 4.16v31.68zm-26.17-25.89v11.78l5.96-5.89zm26.17-2.58-11.24 8.47 11.24 8.47z" fill="#865fc5"/>
   </symbol>
   <symbol id="j" viewBox="-16 -16 32 31.99">
    <path d="m9.72-12.7c-2.9-2.22-6.31-3.3-9.7-3.3-4.81 0-9.57 2.16-12.72 6.27-5.37 7.02-4.05 17.05 2.98 22.42a15.82 15.82 0 0 0 9.71 3.31c4.81 0 9.57-2.16 12.72-6.28 5.37-7.01 4.03-17.05-2.99-22.42" fill="#59b4d9"/>
    <path d="m6.78-2.81a3.443 3.443 0 0 1 4.83-0.64c0.08 0.06 0.14 0.13 0.21 0.2 1.54-1.09 2.61-1.8 3.22-2.21 0.18 0.46 0.3 0.91 0.43 1.37-0.64 0.47-1.5 1.14-2.75 2.15 0.41 1.08 0.28 2.33-0.47 3.31a3.435 3.435 0 0 1-4.44 0.88c-1.63 1.46-3.42 3.13-5.3 5.01 5.87 3.15 10.03 2.69 10.03 2.69-0.7 0.89-1.48 1.66-2.31 2.37-2.47 0.38-6.32 0.34-10.71-2-1.46 1.53-2.95 3.17-4.47 4.94-0.73-0.23-1.43-0.52-2.12-0.86 1.12-1.83 2.63-3.68 4.32-5.48l0.01-0.01c-1.42-0.99-2.99-2.31-4.44-3.85-0.19-0.2-0.36-0.4-0.54-0.6-0.87 0.18-1.78 0.13-2.63-0.18-1.45 3.13-1.33 5.64-1.1 6.93-0.63-0.66-1.22-1.35-1.72-2.09-0.38-1.55-0.49-3.77 0.63-6.46a4.83 4.83 0 0 1 0-5.86c0.11-0.15 0.23-0.28 0.36-0.41-0.59-2.01-0.85-3.94-0.93-5.61 0.15-0.21 0.15-0.37 0.3-0.57 0.77-0.98 1.73-1.81 2.66-2.57-0.12 1.76 0.01 4.36 1.1 7.28 0.75-0.06 1.51 0.06 2.23 0.36 0.41-0.36 0.84-0.72 1.3-1.1 1.57-1.24 3.14-2.21 4.66-2.97-0.08-0.78 0.12-1.58 0.62-2.25a3.207 3.207 0 0 1 4.47-0.59c0.29 0.22 0.52 0.49 0.71 0.78 2.49-0.55 4.66-0.65 6.28-0.65 0.25 0 1.39 1.56 2.05 2.53-0.98-0.21-3.89-0.61-7.87 0.54-0.12 0.44-0.31 0.88-0.6 1.26-1.01 1.33-2.86 1.61-4.24 0.73-1.38 0.75-2.83 1.69-4.33 2.87-0.3 0.24-0.59 0.48-0.87 0.72 0.91 1.44 1.01 3.28 0.2 4.83 0.18 0.18 0.36 0.37 0.56 0.55 1.49 1.38 2.88 2.49 4.18 3.37l-0.15 0.15c0.05-0.05 0.1-0.09 0.15-0.14 2-1.85 4.12-3.6 6.12-5.16-0.53-1.13-0.44-2.5 0.36-3.56z" fill="#fff"/>
   </symbol>
   <symbol id="k" viewBox="-16.28 -24.96 32.57 49.91">
    <path d="m16.26 10.34v0.3c0 7.7-6.6 14.1-14.7 14.2-0.2 0.3-4.8-0.1-4.8-0.1-7.3-0.9-13-7-13-14.1 0-0.2-0.8-5.8 4.9-10.5 2.6-2.3 5.3-8.5 5.7-10.3l0.3-0.6h10.6l0.3 0.6c0.4 1.8 3.2 8 5.7 10.2 5.7 4.8 5 10.1 5 10.3z" fill="#68217a"/>
    <path d="m-5.14-17.76h10.6v3.4h-10.6zm3.3-7.2h3.9l3.3 3.5h-10.5z" fill="#7a7a7a"/>
    <path d="m2.76-10.26h-2v12.7h-1.7v-12.6h-2v12.6h-1.7c-2 0-3.7 1.7-3.7 3.7s1.6 3.7 3.7 3.7 3.7-1.7 3.7-3.7v-1.7h1.7v1.7c0 2 1.7 3.7 3.7 3.7s3.7-1.7 3.7-3.7-1.7-3.7-3.7-3.7h-1.7zm-7.4 18.1c-0.9 0-1.7-0.7-1.7-1.7 0-0.9 0.8-1.7 1.7-1.7h1.7v1.7c-0.1 0.9-0.8 1.7-1.7 1.7zm9.1 0c-0.9 0-1.7-0.8-1.7-1.7v-1.7h1.7c0.9 0 1.7 0.8 1.7 1.7s-0.7 1.7-1.7 1.7z" fill="#fff" opacity=".65"/>
    <path d="m1.56 24.84c-0.2 0.3-4.8-0.1-4.8-0.1-7.3-0.9-13-7-13-14.1 0-0.2-0.7-5.1 3.9-9.6l21.6 21.6c-2.3 1.4-4.9 2.2-7.7 2.2z" fill="#fff" opacity=".15"/>
   </symbol>
   <symbol id="d" viewBox="-10.5 -10 21 20">
    <circle r="10" fill="#505050"/>
    <path d="m1.19 4.16v-8.59h-1.36v6.93c-0.25-0.18-0.51-0.33-0.79-0.45s-0.61-0.23-0.97-0.33v1.16c0.23 0.07 0.45 0.15 0.66 0.23s0.42 0.17 0.62 0.28 0.41 0.21 0.62 0.34 0.42 0.27 0.64 0.43z" fill="#fff"/>
   </symbol>
   <symbol id="e" viewBox="-10.5 -10 21 20">
    <circle r="10" fill="#505050"/>
    <path d="m2.52-4.43h-5.27v0.65c0 0.27 0.04 0.51 0.11 0.75s0.17 0.45 0.3 0.66 0.27 0.4 0.44 0.58 0.35 0.36 0.54 0.53 0.39 0.33 0.59 0.49 0.38 0.31 0.57 0.47c0.18 0.15 0.35 0.3 0.5 0.45s0.28 0.3 0.38 0.45 0.19 0.32 0.25 0.5 0.09 0.36 0.09 0.57c0 0.22-0.03 0.42-0.1 0.58s-0.16 0.3-0.29 0.42-0.27 0.2-0.44 0.25-0.36 0.08-0.56 0.08c-0.34 0-0.69-0.08-1.05-0.24s-0.7-0.4-1.03-0.72v1.31c0.17 0.13 0.35 0.24 0.52 0.34s0.36 0.18 0.54 0.24 0.38 0.11 0.59 0.14 0.43 0.05 0.66 0.05c0.38 0 0.72-0.05 1.03-0.15s0.59-0.25 0.81-0.44 0.39-0.44 0.51-0.73 0.18-0.62 0.18-1c0-0.34-0.04-0.65-0.13-0.92s-0.2-0.52-0.36-0.75-0.34-0.46-0.56-0.67-0.46-0.43-0.73-0.65c-0.22-0.18-0.45-0.36-0.67-0.53s-0.43-0.34-0.61-0.51-0.33-0.34-0.44-0.5-0.17-0.33-0.17-0.5v-0.03h3.79v-1.17z" fill="#fff"/>
   </symbol>
   <symbol id="f" viewBox="-10.5 -10 21 20">
    <circle r="10" fill="#505050"/>
    <path d="m-2.61-4.12v1.28a2.92 2.92 0 0 1 1.85-0.65c0.56 0 1 0.13 1.34 0.38s0.5 0.6 0.5 1.03c0 0.95-0.73 1.43-2.19 1.43h-0.65v1.09h0.62c1.29 0 1.94 0.45 1.94 1.35 0 0.83-0.5 1.24-1.51 1.24-0.56 0-1.09-0.2-1.59-0.6v1.21c0.57 0.32 1.24 0.48 2.02 0.48 0.75 0 1.34-0.19 1.79-0.56s0.68-0.86 0.68-1.45c0-1.11-0.56-1.82-1.69-2.13v-0.02c0.61-0.06 1.09-0.28 1.44-0.64s0.53-0.82 0.53-1.37c0-0.75-0.28-1.36-0.85-1.83s-1.31-0.69-2.24-0.69c-0.83 0-1.49 0.15-1.99 0.45z" fill="#fff"/>
   </symbol>
   <symbol id="g" viewBox="-10.5 -10 21 20">
    <circle r="10" fill="#505050"/>
    <path d="m1.97 3.97v-5.43h1.25v-1.13h-1.25v-1.85h-1.32v1.85h-3.8v1.14c0.34 0.39 0.7 0.81 1.06 1.26s0.71 0.91 1.04 1.38 0.64 0.94 0.93 1.42 0.52 0.93 0.72 1.36zm-1.32-5.42v3.53c-0.43-0.77-0.85-1.43-1.26-2s-0.81-1.08-1.17-1.52h2.43z" fill="#fff"/>
   </symbol>
   <symbol id="h" viewBox="-10.5 -10 21 20">
    <circle r="10" fill="#505050"/>
    <path d="m-2.42-4.23v1.31c0.55-0.37 1.11-0.56 1.68-0.56s1.03 0.15 1.38 0.44 0.52 0.68 0.52 1.16-0.18 0.85-0.53 1.11-0.86 0.4-1.52 0.4c-0.23 0-0.69-0.02-1.38-0.07l0.3 4.42h4.14v-1.17h-3.01l-0.14-2.1c0.27 0.02 0.51 0.02 0.73 0.02 0.89 0 1.58-0.23 2.07-0.69s0.73-1.08 0.73-1.88c0-0.83-0.28-1.5-0.83-2s-1.34-0.74-2.31-0.74c-0.82 0-1.43 0.11-1.83 0.35z" fill="#fff"/>
   </symbol>
   <symbol id="b" viewBox="-10.5 -10 21 20">
    <circle r="10" fill="#505050"/>
    <path d="m2.89-1.73c0-0.42-0.07-0.81-0.21-1.15s-0.33-0.65-0.58-0.9-0.53-0.45-0.87-0.59-0.7-0.21-1.1-0.21c-0.42 0-0.81 0.08-1.16 0.25s-0.66 0.41-0.92 0.73-0.45 0.73-0.59 1.21-0.21 1.04-0.21 1.68c0 0.78 0.09 1.47 0.28 2.07s0.44 1.11 0.76 1.51 0.71 0.72 1.14 0.93 0.91 0.32 1.42 0.32c0.32 0 0.6-0.02 0.86-0.06s0.47-0.1 0.62-0.18v-1.23c-0.2 0.1-0.41 0.19-0.64 0.26s-0.47 0.1-0.77 0.1c-0.33 0-0.63-0.07-0.91-0.2s-0.51-0.32-0.71-0.58-0.36-0.57-0.47-0.95-0.17-0.81-0.18-1.3h0.04c0.18 0.28 0.42 0.5 0.73 0.66s0.67 0.24 1.08 0.24c0.37 0 0.7-0.06 0.99-0.18s0.54-0.3 0.75-0.52 0.37-0.5 0.48-0.82 0.17-0.68 0.17-1.09zm-1.37-0.11c0 0.24-0.03 0.46-0.08 0.66s-0.15 0.37-0.26 0.52-0.26 0.25-0.44 0.33-0.37 0.11-0.61 0.11-0.44-0.04-0.62-0.13-0.33-0.19-0.45-0.33-0.21-0.29-0.27-0.47-0.09-0.35-0.09-0.53c0-0.2 0.03-0.4 0.08-0.61s0.14-0.4 0.26-0.57 0.27-0.31 0.45-0.42 0.4-0.17 0.65-0.17c0.22 0 0.42 0.04 0.59 0.12s0.32 0.2 0.43 0.34 0.2 0.32 0.26 0.51 0.1 0.41 0.1 0.64z" fill="#fff"/>
   </symbol>
   <symbol id="c" viewBox="-10.5 -10 21 20">
    <circle r="10" fill="#505050"/>
    <path d="m2.81 3.29c-0.35-0.64-0.68-1.28-1-1.91s-0.6-1.26-0.85-1.9-0.47-1.28-0.66-1.92-0.33-1.31-0.43-1.98h-1.42c0.09 0.6 0.23 1.2 0.4 1.8s0.38 1.2 0.61 1.8 0.5 1.2 0.79 1.81 0.6 1.22 0.93 1.83h-3.98v1.16h5.61z" fill="#fff"/>
   </symbol>
   <symbol id="i" viewBox="-10.5 -10 21 20">
    <circle r="10" fill="#505050"/>
    <path d="m-2.8-2.08c0 0.24 0.03 0.48 0.09 0.7s0.15 0.44 0.27 0.63 0.27 0.36 0.46 0.52 0.4 0.28 0.64 0.37c-0.36 0.19-0.65 0.45-0.86 0.77s-0.32 0.67-0.32 1.06c0 0.31 0.06 0.59 0.19 0.86s0.3 0.49 0.53 0.68 0.49 0.34 0.79 0.45 0.64 0.16 1 0.16 0.7-0.05 1-0.16 0.57-0.26 0.8-0.45 0.4-0.42 0.52-0.68 0.19-0.56 0.19-0.86c0-0.39-0.11-0.74-0.32-1.06s-0.5-0.58-0.86-0.78c0.24-0.09 0.46-0.22 0.64-0.37s0.34-0.32 0.47-0.51 0.22-0.4 0.28-0.63 0.09-0.46 0.09-0.7c0-0.37-0.07-0.7-0.21-1.01s-0.32-0.57-0.57-0.78-0.54-0.39-0.88-0.51-0.72-0.18-1.14-0.18c-0.41 0-0.79 0.06-1.13 0.18s-0.64 0.29-0.88 0.51-0.44 0.47-0.58 0.78-0.21 0.64-0.21 1.01zm1.33 0.11c0-0.24 0.04-0.45 0.11-0.64s0.17-0.35 0.3-0.49 0.28-0.23 0.47-0.3a1.629 1.629 0 0 1 1.18 0c0.18 0.07 0.33 0.18 0.47 0.31s0.23 0.3 0.31 0.49 0.11 0.4 0.11 0.64c0 0.21-0.04 0.42-0.11 0.61s-0.17 0.35-0.3 0.5-0.28 0.24-0.46 0.32-0.38 0.12-0.61 0.12c-0.21 0-0.41-0.04-0.59-0.11s-0.34-0.18-0.47-0.32-0.23-0.3-0.31-0.5-0.1-0.4-0.1-0.63zm0.28 3.8c0-0.18 0.03-0.34 0.09-0.49s0.15-0.28 0.25-0.39 0.23-0.2 0.37-0.26 0.3-0.09 0.46-0.09 0.32 0.03 0.46 0.1 0.27 0.15 0.38 0.26 0.2 0.24 0.26 0.39 0.09 0.31 0.09 0.48c0 0.18-0.03 0.34-0.09 0.49s-0.14 0.28-0.25 0.39-0.23 0.2-0.37 0.26-0.3 0.09-0.47 0.09c-0.18 0-0.34-0.03-0.48-0.1s-0.27-0.14-0.37-0.26-0.18-0.25-0.24-0.4-0.09-0.3-0.09-0.47z" fill="#fff"/>
   </symbol>
   <path d="m75.55 23.075 0.17474 0.12502v53.925l-65.6-9.975 27.5 32.85v-13.2l37.65 13.2 24.575-20.875v-60.525z" fill="#0078d4" stroke-width="2.5"/>
   <path d="m10.125 35.175 65.425-12.1-31.325-23.075v10.75l-34.1 13.525-10.125 13.225v28.1l10.125 1.55z" fill="#0078d4" stroke-width="2.5"/>
  </g>
 </switch>
</svg>
