<?xml version="1.0" encoding="UTF-8"?>
<svg version="1.1" viewBox="0 0 18 18" xmlns="http://www.w3.org/2000/svg">
 <defs>
  <linearGradient id="a" x1="13.25" x2="8.62" y1="13.02" y2="4.25" gradientUnits="userSpaceOnUse">
   <stop stop-color="#1988d9" offset="0"/>
   <stop stop-color="#54aef0" offset=".9"/>
  </linearGradient>
  <linearGradient id="b" x1="11.26" x2="14.46" y1="10.47" y2="15.99" gradientUnits="userSpaceOnUse">
   <stop stop-color="#54aef0" offset=".1"/>
   <stop stop-color="#4fabee" offset=".29"/>
   <stop stop-color="#41a2e9" offset=".51"/>
   <stop stop-color="#2a93e0" offset=".74"/>
   <stop stop-color="#1988d9" offset=".88"/>
  </linearGradient>
 </defs>
 <path d="M1.01 10.19l7.92 5.14 8.06-5.16L18 11.35l-9.07 5.84L0 11.35l1.01-1.16z" fill="#50e6ff"/>
 <path d="M1.61 9.53L8.93.81l7.47 8.73-7.47 4.72-7.32-4.73z" fill="#fff"/>
 <path d="M8.93.81v13.45L1.61 9.53 8.93.81z" fill="#50e6ff"/>
 <path d="M8.93.81v13.45l7.47-4.72L8.93.81z" fill="url(#a)"/>
 <path d="m8.93 7.76 7.47 1.78-7.47 4.72v-6.5z" fill="#53b1e0"/>
 <path d="m8.93 14.26-7.32-4.73 7.32-1.77v6.5z" fill="#9cebff"/>
 <path d="m8.93 17.19 9.07-5.84-1.01-1.18-8.06 5.16v1.86z" fill="url(#b)"/>
</svg>
