<svg width="256" height="256" version="1.1" viewBox="0 0 256 256" xmlns="http://www.w3.org/2000/svg">
<defs>
<linearGradient id="a" x1="13.25" x2="8.62" y1="13.02" y2="4.25" gradientTransform="matrix(14.222 0 0 14.222 2e-6 2e-6)" gradientUnits="userSpaceOnUse">
<stop stop-color="#1988d9" offset="0"/>
<stop stop-color="#54aef0" offset=".9"/>
</linearGradient>
<linearGradient id="b" x1="11.26" x2="14.46" y1="10.47" y2="15.99" gradientTransform="matrix(14.222 0 0 14.222 2e-6 2e-6)" gradientUnits="userSpaceOnUse">
<stop stop-color="#54aef0" offset=".1"/>
<stop stop-color="#4fabee" offset=".29"/>
<stop stop-color="#41a2e9" offset=".51"/>
<stop stop-color="#2a93e0" offset=".74"/>
<stop stop-color="#1988d9" offset=".88"/>
</linearGradient>
</defs>
<g stroke-width="14.222">
<path d="m14.364 144.92 112.64 73.102 114.63-73.387 14.364 16.782-129 83.058-127-83.058z" fill="#50e6ff"/>
<path d="m22.898 135.54 104.11-124.02 106.24 124.16-106.24 67.129z" fill="#fff"/>
<path d="m127 11.52v191.29l-104.11-67.271z" fill="#50e6ff"/>
<path d="m127 11.52v191.29l106.24-67.129z" fill="url(#a)"/>
<path d="m127 110.36 106.24 25.316-106.24 67.129z" fill="#53b1e0"/>
<path d="m127 202.81-104.11-67.271 104.11-25.173z" fill="#9cebff"/>
<path d="m127 244.48 129-83.058-14.364-16.782-114.63 73.387z" fill="url(#b)"/>
</g>
</svg>
