<svg width="256" height="256" data-name="Layer 1" version="1.1" viewBox="0 0 256 256" xmlns="http://www.w3.org/2000/svg">
<path d="m54.073 199.57c5.5182 3.4418 14.692 7.2676 24.391 7.2676 8.832 0 17.038-2.56 23.836-6.9262 0 0 .0142 0 .0284-.0142l25.671-16.043v57.927c-4.0676 0-8.1636-1.1093-11.719-3.328z" fill="#225086" stroke-width="14.222"/>
<path d="m111.69 21.433-106.67 120.32c-8.2347 9.3013-6.0871 23.353 4.5938 30.023 0 0 39.481 24.676 44.459 27.79 5.5182 3.4418 14.692 7.2676 24.391 7.2676 8.832 0 17.038-2.56 23.836-6.9262 0 0 .0142 0 .0284-.0142l25.671-16.043-62.066-38.798 62.08-70.03v-60.8c-6.0302 0-12.046 2.4036-16.313 7.2107z" fill="#6df" stroke-width="14.222"/>
<polygon transform="matrix(14.222 0 0 14.222 -5.2e-5 -5.2e-5)" points="9.001 5.276 9 5.275 4.636 10.199 4.688 10.231 9 12.927 9.001 12.927" fill="#cbf8ff"/>
<path d="m246.39 171.78c10.681-6.6702 12.828-20.722 4.5938-30.023l-69.988-78.948c-5.6462-2.6311-11.975-4.1387-18.674-4.1387-13.156 0-24.917 5.6747-32.74 14.592l-1.5502 1.7493 62.066 70.03-62.08 38.798v57.927c4.0818 0 8.1493-1.1093 11.705-3.328l106.67-66.674z" fill="#074793" stroke-width="14.222"/>
<path d="m128.01 14.222v60.8l1.5502-1.7493c7.8222-8.9173 19.584-14.592 32.74-14.592 6.7129 0 13.028 1.5218 18.674 4.1387l-36.679-41.372c-4.2524-4.8071-10.283-7.2107-16.299-7.2107z" fill="#0294e4" stroke-width="14.222"/>
<polygon transform="matrix(14.222 0 0 14.222 -5.2e-5 -5.2e-5)" points="13.365 10.199 9.001 5.276 9.001 12.926" fill="#96bcc2"/>
</svg>
