<svg width="100" height="100" version="1.1" viewBox="0 0 100 100" xmlns="http://www.w3.org/2000/svg">
<g fill="#1967d2">
<path d="m9.4994 69.234 11.704 20.274c1.8498 3.2074 5.2723 5.1817 8.9719 5.1817h24.924l-4.4859-13.616-10.782-11.84-15.166-2.6361z"/>
<path d="m98.613 44.818-11.365-19.686-9.7751 10.822-5.77 14.046 6.2678 15.03 9.2038 9.9562 11.438-19.805c1.8493-3.2074 1.8493-7.1559 0-10.363z"/>
<path d="m55.105 5.3104h-24.924c-3.6996 0-7.122 1.9743-8.9718 5.1818l-11.71 20.274 15.166 2.6361 15.166-2.6361 11.071-11.84z"/>
</g>
<g fill="#4285f4">
<path d="m28.292 50 11.54-19.234h-30.332l-8.112 14.052c-1.8498 3.2075-1.8498 7.156 0 10.363l8.112 14.052h30.332z"/>
<path d="m60.163 30.766 11.54 19.234 15.54-24.868-8.4514-14.64c-1.8498-3.2075-5.2723-5.1818-8.9719-5.1818h-14.714l-15.274 25.456z"/>
<path d="m60.163 69.234h-20.331l15.274 25.456h14.714c3.6996 0 7.1221-1.9743 8.9719-5.1817l8.3835-14.521-15.472-24.987z"/>
</g>
</svg>
