<?xml version="1.0" encoding="UTF-8"?>
<svg width="500" height="500" version="1.1" xmlns="http://www.w3.org/2000/svg">
<path d="m198.72 243.59c-88.589 0-160.26 71.666-160.26 160.26v67.308c0 15.929 12.917 28.846 28.846 28.846h76.924l76.923-256.41z" fill="#86a9ff"/>
<path d="m461.54 349.36c0-58.462-47.307-105.77-105.77-105.77h-76.923v256.41h76.923c58.462 0 105.77-47.308 105.77-105.77" fill="#578cff"/>
<path d="m115.38 349.36c0-58.462 47.307-105.77 105.77-105.77h57.692c58.462 0 105.77 47.308 105.77 105.77v44.872c0 58.462-47.308 105.77-105.77 105.77h-134.62c-15.929 0-28.846-12.917-28.846-28.846z" fill="#0057cc"/>
<circle cx="250" cy="99.359" r="99.359" fill="#0057cc"/>
</svg>
