<svg width="100" height="100" version="1.1" viewBox="0 0 100 100" xmlns="http://www.w3.org/2000/svg">
<path d="m7.5602 81.902 4.4101 7.6174c.9163 1.6037 2.2337 2.8637 3.78 3.7801l15.75-27.262h-31.501c0 1.7755.45819 3.551 1.3746 5.1547z" fill="#0066da"/>
<path d="m50 33.964-15.75-27.262c-1.5464.91638-2.8637 2.1764-3.7801 3.7801l-29.095 50.401c-.89953 1.5691-1.3734 3.3461-1.3746 5.1547h31.501z" fill="#00ac47"/>
<path d="m84.25 93.299c1.5464-.9164 2.8637-2.1764 3.78-3.7801l1.8328-3.15 8.7629-15.178c.9164-1.6037 1.3742-3.3792 1.3742-5.1547h-31.503l6.7034 13.173z" fill="#ea4335"/>
<path d="m50 33.964 15.75-27.262c-1.5464-.91639-3.3219-1.3746-5.1547-1.3746h-21.191c-1.8328 0-3.6083.51547-5.1546 1.3746z" fill="#00832d"/>
<path d="m68.5 66.037h-36.999l-15.75 27.262c1.5464.9164 3.3219 1.3746 5.1547 1.3746h58.19c1.8328 0 3.6083-.5155 5.1547-1.3746z" fill="#2684fc"/>
<path d="m84.078 35.682-14.548-25.201c-.9163-1.6036-2.2337-2.8637-3.78-3.7801l-15.75 27.262 18.5 32.073h31.443c0-1.7755-.4582-3.551-1.3745-5.1547z" fill="#ffba00"/>
</svg>
