<?xml version="1.0" encoding="UTF-8"?>
<svg width="500" height="500" version="1.1" viewBox="0 0 500 500" xmlns="http://www.w3.org/2000/svg">
 <defs>
  <style>.cls-1{fill:#008ec7;}.cls-2{fill:#005b9b;}.cls-3{fill:#fff;}</style>
 </defs>
 <polygon class="cls-2" points="414.8 361.54 77.89 361.54 24.657 250.01 77.89 138.48 414.8 138.48 468.04 250.01"/>
 <path class="cls-1" d="m436.14 116.21h-372.29l-63.856 133.79 63.856 133.79h372.29l63.856-133.79zm-21.339 245.31h-336.91l-53.233-111.52 53.233-111.52h336.91l53.234 111.52z"/>
 <path class="cls-3" d="m278.14 227.42h-25.486v-15.024h69.395v15.024h-25.487v64.619h-18.422z"/>
 <path class="cls-3" d="m206.7 227.42h-25.486v-15.024h69.395v15.024h-25.419v64.619h-18.49z"/>
 <path class="cls-3" d="m171.31 212.39v79.643h-18.436v-32.671h-36.122v32.657h-18.476v-79.629h18.423v31.399h36.122v-31.399z"/>
 <path class="cls-3" d="m384.8 215.92c4.903 2.091 9.088 5.569 12.041 10.007 2.876 4.597 4.337 9.938 4.201 15.359 0.12 5.402-1.34 10.721-4.201 15.305-2.93 4.458-7.122 7.942-12.041 10.007-5.816 2.433-12.079 3.614-18.382 3.465h-16.054v21.968h-18.409v-79.643h34.463c6.309-0.148 12.577 1.056 18.382 3.532zm-6.769 35.547c2.947-2.536 4.545-6.3 4.321-10.181 0-4.469-1.445-7.907-4.321-10.289-2.877-2.381-7.091-3.585-12.63-3.585h-15.024v27.64h15.024c5.539 0 9.749-1.195 12.63-3.585z"/>
</svg>
