<?xml version="1.0" encoding="UTF-8"?>
<svg width="300px" height="300px" enable-background="new 0 0 300 300" version="1.1" viewBox="0 0 300 300" xml:space="preserve" xmlns="http://www.w3.org/2000/svg">
<style type="text/css">
	.st0{fill:#FFCE20;}
	.st1{fill:#8B8785;}
</style>
<g transform="translate(0,-2.682)"><path class="st0" d="m234.05 154.89c-.084 0 65.276-28.515 65.355-28.515 0 0-52.253 43.238-52.253 43.326-3.657-4.769-7.995-9.792-13.102-14.811"/><path class="st0" d="m208.77 136.08c0 .26 60.258-47.572 60.338-47.651l-41.873 60.336c-5.446-4.514-11.573-8.853-18.465-12.685"/><path class="st0" d="m182.3 125.45-.341-.172c.087 0 52.853-58.209 52.853-58.381 0 .085-31.315 66.468-31.315 66.468-6.388-3.148-13.454-5.876-21.197-7.915"/><path class="st0" d="m153.37 121.19s35.15-65.106 35.15-65.186c0 0-10.895 68.339-10.895 68.246-7.49-1.698-15.579-2.805-24.255-3.06"/><path class="st0" d="m142.22 52.682 4.338 68.426c-.595 0-1.194 0-1.793.081-6.976.169-13.782.849-20.333 2.043 0-.169 17.788-70.55 17.788-70.55"/><path class="st0" d="m95.15 131.92v-67.15l24 59.576c-8.422 1.785-16.42 4.425-24 7.574"/><path class="st0" d="m70.045 145.36-15.657-57.617s36.082 46.04 36.164 46.126c-7.483 3.405-14.292 7.318-20.507 11.491"/><path class="st0" d="m52.089 160.25c-.257.261-.514.517-.766.77-.931.937-1.87 1.955-2.808 2.979 0-.088-18.979-51.829-18.979-51.829.088 0 35.745 36.418 35.917 36.513-5.02 3.737-9.445 7.566-13.364 11.567"/><path class="st0" d="m51.66 187.58c.09.248.173.504.345.765l.167.425c-9.107 16.338-19.316 32.423-33.528 45.532h63.146v11.655h-75.236s-6.554-15.232-6.554-15.314c21.533-14.22 34.984-37.535 43.408-60.849z"/><path class="st0" d="m59.068 213.2c-2.466-1.535-3.06-3.155-3.744-5.195-1.108-4.261 2.296-10.47 8.682-9.788 3.322.507 6.384 3.231 6.384 6.549-1.365-2.895-8.426-5.525-9.108-2.555-.172.766.597 1.279 1.103 1.113 1.702-.515 6.382 0 7.488 2.124.854 1.445.516 4.422-.848 6.298-2.384 3.068-7.062 3.235-9.957 1.454"/><polygon class="st1" points="111.49 175.66 94.466 177.19 94.466 246.46 111.49 244.93"/><path class="st1" d="m187.58 185.19c-7.151-6.121-16.85-9.525-26.896-9.525-19.995 0-36.588 15.829-36.588 35.824 0 19.917 16.593 35.832 36.588 35.832 10.383 0 22.046-2.978 28.936-6.98v-35.495h-29.864l-4.855 14.477h17.703v9.957c-1.959 1.954-7.145 2.466-9.793 2.466-11.824 0-21.696-7.488-21.696-20.257 0-11.829 8.597-20.255 20.427-20.255 5.863 0 11.653 2.298 16.082 6.305z"/><polygon class="st1" points="221.11 191.74 245.87 191.74 242.89 177.19 204.18 177.19 204.18 245.7 243.74 245.7 247.92 231.23 221.11 231.23 221.11 218.04 238.81 218.04 238.81 203.57 221.11 203.57"/><polygon class="st1" points="298.46 230.12 276 230.12 276 175.66 259.06 177.19 259.06 245.7 293.96 245.7"/><path class="st1" d="m292.94 165.28c0 .937-.512 1.361-1.445 1.361h-2.807v-2.724h2.807c.933.001 1.445.429 1.445 1.363m2.211 7.146-2.042-4.082c1.36-.509 2.042-1.535 2.042-3.15 0-2.213-1.614-3.324-3.656-3.324h-4.934v10.555h2.127v-3.827h2.118l1.875 3.827h2.47zm-4.595 2.474c-4.34 0-7.745-3.404-7.745-7.746 0-4.262 3.405-7.75 7.745-7.75 4.258 0 7.66 3.488 7.66 7.75 0 4.342-3.402 7.746-7.66 7.746m0 1.787c5.191 0 9.445-4.261 9.445-9.533 0-5.191-4.253-9.53-9.445-9.53-5.282 0-9.532 4.338-9.532 9.53 0 5.272 4.25 9.533 9.532 9.533"/></g>
</svg>
