<?xml version="1.0" encoding="UTF-8"?>
<svg width="128" height="128" version="1.1" xmlns="http://www.w3.org/2000/svg">
 <path d="m26.667 16h10.667v10.667h-10.667v26.667c0 2.829-1.1239 5.5421-3.1242 7.5425-2.0004 2.0004-4.7135 3.1242-7.5425 3.1242 2.829 0 5.5421 1.1238 7.5425 3.1242 2.0003 2.0003 3.1242 4.7134 3.1242 7.5424v26.666h10.667v10.667h-10.667c-5.7067-1.44-10.667-4.8-10.667-10.667v-21.333c0-2.8289-1.1238-5.542-3.1242-7.5424s-4.7135-3.1242-7.5425-3.1242h-5.3333v-10.667h5.3333c2.829 0 5.5421-1.1238 7.5425-3.1242 2.0004-2.0003 3.1242-4.7135 3.1242-7.5424v-21.333c0-2.829 1.1238-5.5421 3.1242-7.5425s4.7135-3.1242 7.5425-3.1242m74.666 0c2.829 0 5.542 1.1238 7.543 3.1242 2 2.0004 3.124 4.7135 3.124 7.5425v21.333c0 2.8289 1.124 5.5421 3.124 7.5424 2.001 2.0004 4.714 3.1242 7.543 3.1242h5.333v10.667h-5.333c-2.829 0-5.542 1.1238-7.543 3.1242-2 2.0004-3.124 4.7135-3.124 7.5424v21.333c0 2.829-1.124 5.542-3.124 7.543-2.001 2-4.714 3.124-7.543 3.124h-10.666v-10.667h10.666v-26.666c0-2.829 1.124-5.5421 3.124-7.5424 2.001-2.0004 4.714-3.1242 7.543-3.1242-2.829 0-5.542-1.1238-7.543-3.1242-2-2.0004-3.124-4.7135-3.124-7.5425v-26.667h-10.666v-10.667zm-37.333 64c1.4144 0 2.771 0.562 3.7712 1.5621 1.0002 1.0002 1.5621 2.3568 1.5621 3.7713s-0.5619 2.771-1.5621 3.7712-2.3568 1.5621-3.7712 1.5621c-1.4145 0-2.7711-0.5619-3.7713-1.5621s-1.5621-2.3567-1.5621-3.7712 0.5619-2.7711 1.5621-3.7713c1.0002-1.0001 2.3568-1.5621 3.7713-1.5621m-21.333 0c1.4145 0 2.7711 0.562 3.7713 1.5621 1.0002 1.0002 1.5621 2.3568 1.5621 3.7713s-0.5619 2.771-1.5621 3.7712-2.3568 1.5621-3.7713 1.5621c-1.4144 0-2.771-0.5619-3.7712-1.5621s-1.5621-2.3567-1.5621-3.7712 0.5619-2.7711 1.5621-3.7713c1.0002-1.0001 2.3568-1.5621 3.7712-1.5621m42.667 0c1.4145 0 2.771 0.562 3.7712 1.5621 1.0002 1.0002 1.5621 2.3568 1.5621 3.7713s-0.5619 2.771-1.5621 3.7712-2.3567 1.5621-3.7712 1.5621-2.7711-0.5619-3.7713-1.5621c-1.0001-1.0002-1.5621-2.3567-1.5621-3.7712s0.562-2.7711 1.5621-3.7713c1.0002-1.0001 2.3568-1.5621 3.7713-1.5621z" stroke-linecap="flat"/>
</svg>
