<svg enable-background="new 0 0 2048 2048" version="1.1" viewBox="0 0 2048 2048" xml:space="preserve" xmlns="http://www.w3.org/2000/svg">
<path d="m1391 2049h-1390v-2048h2048v2048h-658m-801.5-438.21c60.494.010865 120.99-.023803 181.48.13294 4.1096.010742 6.6806-1.248 9.2137-4.3929 26.223-32.557 52.588-65 78.911-97.477 41.108-50.717 82.213-101.44 123.32-152.15 35.972-44.381 71.955-88.753 107.92-133.14 52.321-64.573 104.6-129.18 157.02-193.67 3.0585-3.7631 3.2667-6.2015.092163-10.092-38.115-46.716-76.041-93.584-114.03-140.41-51.942-64.025-103.91-128.03-155.83-192.07-64.188-79.179-128.45-158.3-192.31-237.74-6.1466-7.6461-12.244-10.509-22.017-10.487-143.65.33054-287.3.22794-430.95.24463-2.0615.000244-4.1231.20984-7.0465.3685 1.3973 2.0432 2.1386 3.3067 3.0498 4.4328 17.182 21.235 34.377 42.46 51.585 63.674 47.001 57.945 94.027 115.87 141.01 173.83 40.589 50.075 81.099 100.21 121.7 150.28 51.191 63.127 102.42 126.22 153.72 189.26 2.2117 2.7175 2.3329 4.3729.065552 7.1556-28.405 34.86-56.664 69.84-84.981 104.77-41.009 50.588-82.044 101.15-123.05 151.74-46.565 57.446-93.117 114.9-139.66 172.36-40.154 49.569-80.297 99.147-120.43 148.73-.97153 1.2003-1.7606 2.5483-3.1885 4.6377h264.41m668.26-437.55c-29.478 36.344-58.97 72.677-88.432 109.03-25.688 31.7-51.306 63.457-77.076 95.091-2.2959 2.8185-2.0038 4.5566.16663 7.2052 17.519 21.38 34.907 42.867 52.311 64.341 42.786 52.789 85.581 105.57 128.28 158.43 2.2917 2.8374 4.8217 3.5166 8.1978 3.5156 145.98-.043213 291.96-.026001 437.93-.028687 1.7599 0 3.5199-.16455 6.6295-.31958-137.36-169.57-273.96-338.2-411.1-507.49-19.209 23.693-37.842 46.677-56.908 70.224m-96.585-592.57c-22.98 28.317-45.925 56.662-68.997 84.905-2.2133 2.7092-2.3228 4.5006-.06311 7.2537 17.011 20.725 33.885 41.564 50.773 62.39 56.219 69.331 112.42 138.67 168.66 207.99.88049 1.0856 2.0336 1.9501 3.4823 3.3167 136.8-168.77 273.25-337.08 410.56-506.48-3.3513-.21887-5.0977-.43246-6.8441-.43271-101.48-.014191-202.96-.011017-304.44-.00885-44.492.000946-88.984.023132-133.48-.034699-3.3495-.004333-5.8514.65118-8.1689 3.5214-36.931 45.739-73.993 91.371-111.48 137.58z" fill="#FF4553"/><g fill="#FFFEFE">
<path d="m589 1610.8h-263.91c1.4279-2.0894 2.217-3.4374 3.1885-4.6377 40.132-49.586 80.275-99.165 120.43-148.73 46.548-57.461 93.099-114.92 139.66-172.36 41.007-50.589 82.042-101.16 123.05-151.74 28.317-34.932 56.576-69.911 84.981-104.77 2.2674-2.7827 2.1462-4.4381-.065552-7.1556-51.303-63.037-102.53-126.13-153.72-189.26-40.6-50.066-81.11-100.21-121.7-150.28-46.981-57.961-94.008-115.88-141.01-173.83-17.208-21.214-34.402-42.439-51.585-63.674-.91119-1.1261-1.6525-2.3897-3.0498-4.4328 2.9235-.15866 4.985-.36826 7.0465-.3685 143.65-.016693 287.3.085907 430.95-.24463 9.7735-.022491 15.871 2.8406 22.017 10.487 63.862 79.442 128.12 158.56 192.31 237.74 51.919 64.044 103.89 128.04 155.83 192.07 37.985 46.821 75.912 93.69 114.03 140.41 3.1746 3.8908 2.9663 6.3292-.092163 10.092-52.419 64.493-104.7 129.1-157.02 193.67-35.965 44.387-71.947 88.759-107.92 133.14-41.108 50.717-82.213 101.44-123.32 152.15-26.323 32.477-52.688 64.92-78.911 97.477-2.5331 3.1449-5.1041 4.4037-9.2137 4.3929-60.493-.15674-120.99-.12207-181.98-.13294z"/>
<path d="m1258 1173c18.85-23.266 37.483-46.249 56.692-69.943 137.14 169.3 273.74 337.93 411.1 507.49-3.1096.15503-4.8696.31958-6.6295.31958-145.98.002686-291.96-.014526-437.93.028687-3.3761.000976-5.906-.67822-8.1978-3.5156-42.698-52.86-85.493-105.64-128.28-158.43-17.404-21.474-34.792-42.961-52.311-64.341-2.1704-2.6486-2.4625-4.3867-.16663-7.2052 25.769-31.634 51.388-63.391 77.076-95.091 29.462-36.357 58.953-72.69 88.648-109.32z"/>
<path d="m1161.4 580.41c37.26-45.93 74.323-91.563 111.25-137.3 2.3175-2.8702 4.8195-3.5258 8.1689-3.5214 44.492.057831 88.984.035645 133.48.034699 101.48-.002167 202.96-.005341 304.44.00885 1.7465.000244 3.4928.21384 6.8441.43271-137.32 169.4-273.76 337.72-410.56 506.48-1.4487-1.3666-2.6018-2.2311-3.4823-3.3167-56.232-69.321-112.44-138.66-168.66-207.99-16.888-20.827-33.761-41.665-50.773-62.39-2.2596-2.7531-2.1501-4.5445.06311-7.2537 23.072-28.242 46.017-56.588 69.225-85.179z"/>
</g></svg>
