<?xml version="1.0" encoding="UTF-8"?>
<svg width="1e3" height="1e3" enable-background="new 0 0 1881.25 1750" version="1.1" viewBox="0 0 1e3 1e3" xml:space="preserve" xmlns="http://www.w3.org/2000/svg">









<linearGradient id="SVGID_1_" x1="167.21" x2="795.29" y1="1420.9" y2="333.09" gradientTransform="matrix(.53156 0 0 -.53156 0 931.3)" gradientUnits="userSpaceOnUse">
	<stop stop-color="#2368C4" offset="0"/>
	<stop stop-color="#1A5DBE" offset=".5"/>
	<stop stop-color="#1146AC" offset="1"/>
</linearGradient>

<g transform="translate(0 34.884)" stroke-width=".53156"><path d="m957.37 0h-682.19c-23.543 0-42.628 19.085-42.628 42.628v189.93l395.35 116.28 372.09-116.28v-189.93c0-23.543-19.085-42.628-42.628-42.628z" fill="#41a5ee"/><path d="m1e3 232.56h-767.44v232.56l395.35 69.767 372.09-69.767z" fill="#2b7cd3"/><path d="m232.56 465.12v232.56l372.09 46.512 395.35-46.512v-232.56z" fill="#185abd"/><path d="m275.19 930.23h682.19c23.543 0 42.628-19.085 42.628-42.628v-189.93h-767.44v189.93c0 23.543 19.085 42.628 42.628 42.628z" fill="#103f91"/><path d="m515.51 186.05h-282.95v581.4h282.95c23.511-0.0765 42.551-19.117 42.628-42.628v-496.14c-0.0765-23.511-19.117-42.551-42.628-42.628z" enable-background="new    " opacity=".1"/><path d="m492.26 209.3h-259.7v581.4h259.7c23.511-0.0765 42.551-19.117 42.628-42.628v-496.14c-0.0765-23.511-19.117-42.551-42.628-42.628z" enable-background="new    " opacity=".2"/><path d="m492.26 209.3h-259.7v534.88h259.7c23.511-0.0765 42.551-19.117 42.628-42.628v-449.63c-0.0765-23.511-19.117-42.551-42.628-42.628z" enable-background="new    " opacity=".2"/><path d="m469 209.3h-236.44v534.88h236.44c23.511-0.0765 42.551-19.117 42.628-42.628v-449.63c-0.0765-23.511-19.117-42.551-42.628-42.628z" enable-background="new    " opacity=".2"/><path d="m42.628 209.3h426.37c23.543 0 42.628 19.085 42.628 42.628v426.37c0 23.543-19.085 42.628-42.628 42.628h-426.37c-23.543 0-42.628-19.085-42.628-42.628v-426.37c0-23.543 19.085-42.628 42.628-42.628z" fill="url(#SVGID_1_)"/><path d="m174.93 536.23c0.8372 6.5813 1.3953 12.302 1.651 17.209h0.97648c0.3721-4.6512 1.1471-10.256 2.3256-16.814 1.1785-6.5584 2.2405-12.101 3.1862-16.628l44.837-193.44h57.977l46.512 190.53c2.7024 11.847 4.6368 23.857 5.7908 35.953h0.76758c0.86697-11.719 2.4829-23.371 4.8372-34.884l37.093-191.7h52.768l-65.163 277.21h-61.651l-44.186-183.58c-1.2789-5.2789-2.7439-12.186-4.3487-20.675-1.6048-8.4885-2.6046-14.698-3.0001-18.605h-0.76758c-0.51136 4.5114-1.5118 11.21-3.0001 20.093-1.4884 8.884-2.6823 15.457-3.5817 19.721l-41.535 183h-62.698l-65.511-277.07h53.721l40.395 193.84c0.90738 3.9771 1.768 9.2795 2.6052 15.838z" fill="#fff"/></g>
</svg>
