<svg width="256" height="256" enable-background="new 0 0 2228.833 2073.333" version="1.1" viewBox="0 0 256 256" xml:space="preserve" xmlns="http://www.w3.org/2000/svg">
<linearGradient id="SVGID_1_" x1="198.1" x2="942.23" y1="1683.1" y2="394.26" gradientTransform="matrix(.11486 0 0 -.11486 -5.6818e-5 247.31)" gradientUnits="userSpaceOnUse">
	<stop stop-color="#5A62C3" offset="0"/>
	<stop stop-color="#4D55BD" offset=".5"/>
	<stop stop-color="#3940AB" offset="1"/>
</linearGradient><g stroke-width=".11486">
<path d="m178.56 98.233h66.126c6.2473 0 11.312 5.0644 11.312 11.312v60.232c0 22.96-18.613 41.573-41.573 41.573h-.19653c-22.96.003-41.577-18.607-41.579-41.568v-65.638c0-3.2651 2.6469-5.9119 5.9119-5.9119z" fill="#5059c9"/><circle cx="223.25" cy="59.535" r="26.791" fill="#5059c9"/><circle cx="139.91" cy="47.628" r="38.698" fill="#7b83eb"/><path d="m191.51 98.233h-109.15c-6.1729.15276-11.056 5.2756-10.913 11.449v68.697c-.86202 37.044 28.446 67.786 65.489 68.692 37.043-.90659 66.351-31.647 65.489-68.692v-68.697c.143-6.1731-4.74-11.296-10.913-11.449z" fill="#7b83eb"/><path d="m142.89 98.233v96.268c-.0296 4.4146-2.7048 8.3806-6.787 10.061-1.2998.54983-2.6967.83319-4.108.83353h-55.308c-.77392-1.9647-1.4884-3.9293-2.0838-5.9535-2.084-6.8315-3.1474-13.934-3.1554-21.076v-68.704c-.14312-6.1632 4.732-11.278 10.895-11.431z" enable-background="new    " opacity=".1"/><path d="m136.94 98.233v102.22c0 1.4113-.2837 2.8082-.83353 4.108-1.6809 4.0822-5.6468 6.7575-10.061 6.787h-46.557c-1.0121-1.9647-1.9647-3.9294-2.7982-5.9535-.83354-2.0242-1.4884-3.9294-2.0838-5.9535-2.084-6.8314-3.1474-13.934-3.1554-21.076v-68.704c-.14312-6.1632 4.732-11.278 10.895-11.431z" enable-background="new    " opacity=".2"/><path d="m136.94 98.233v90.315c-.0454 5.9983-4.8967 10.85-10.895 10.895h-51.439c-2.084-6.8314-3.1474-13.934-3.1554-21.076v-68.704c-.14312-6.1632 4.732-11.278 10.895-11.431z" enable-background="new    " opacity=".2"/><path d="m130.98 98.233v90.315c-.0454 5.9983-4.8967 10.85-10.895 10.895h-45.486c-2.084-6.8314-3.1474-13.934-3.1554-21.076v-68.704c-.14312-6.1632 4.732-11.278 10.895-11.431z" enable-background="new    " opacity=".2"/><path d="m142.89 67.454v18.754c-1.0121.0595-1.9647.11911-2.9768.11911-1.0121 0-1.9647-.0595-2.9768-.11911-2.0096-.13335-4.0026-.4522-5.9535-.95253-12.056-2.8551-22.016-11.31-26.791-22.742-.82159-1.9199-1.4594-3.9134-1.9052-5.9535h29.708c6.0077.02274 10.872 4.8872 10.895 10.895z" enable-background="new    " opacity=".1"/><path d="m136.94 73.407v12.8c-2.0096-.13335-4.0026-.4522-5.9535-.95253-12.056-2.8551-22.016-11.31-26.791-22.742h21.85c6.0076.02274 10.872 4.8873 10.895 10.895z" enable-background="new    " opacity=".2"/><path d="m136.94 73.407v12.8c-2.0096-.13335-4.0026-.4522-5.9535-.95253-12.056-2.8551-22.016-11.31-26.791-22.742h21.85c6.0076.02274 10.872 4.8873 10.895 10.895z" enable-background="new    " opacity=".2"/><path d="m130.98 73.407v11.848c-12.056-2.8551-22.016-11.31-26.791-22.742h15.897c6.0077.02286 10.872 4.8874 10.895 10.895z" enable-background="new    " opacity=".2"/><path d="m10.913 62.511h109.15c6.027 0 10.913 4.8859 10.913 10.913v109.15c0 6.027-4.8859 10.913-10.913 10.913h-109.15c-6.027 0-10.913-4.8859-10.913-10.913v-109.15c0-6.0269 4.8859-10.913 10.913-10.913z" fill="url(#SVGID_1_)"/><path d="m94.208 104.06h-21.82v59.417h-13.901v-59.417h-21.719v-11.526h57.44z" fill="#fff"/>
</g></svg>
