<?xml version="1.0" encoding="UTF-8"?>
<svg width="96" height="96" fill="none" version="1.1" viewBox="0 0 96 96" xmlns="http://www.w3.org/2000/svg">
<defs>
<filter id="filter0_f" x="-.03" y="-.013333" width="1.06" height="1.0267">
<feFlood flood-opacity="0" result="BackgroundImageFix"/>
<feBlend in="SourceGraphic" in2="BackgroundImageFix" result="shape"/>
<feGaussianBlur result="effect1_foregroundBlur" stdDeviation="0.4"/>
</filter>
<filter id="filter1_f" x="-.3" y="-.13333" width="1.6" height="1.2667">
<feFlood flood-opacity="0" result="BackgroundImageFix"/>
<feBlend in="SourceGraphic" in2="BackgroundImageFix" result="shape"/>
<feGaussianBlur result="effect1_foregroundBlur" stdDeviation="4"/>
</filter>
<linearGradient id="paint0_linear" x1="46.667" x2="88.865" y1="-8.978e-7" y2="89.447" gradientUnits="userSpaceOnUse">
<stop stop-color="#E6AD10" offset="0"/>
<stop stop-color="#C87E0E" offset="1"/>
</linearGradient>
<linearGradient id="paint1_linear" x1="31.997" x2="67.486" y1="24" y2="92.826" gradientUnits="userSpaceOnUse">
<stop stop-color="#F6D751" offset="0"/>
<stop stop-color="#E6AD10" offset="1"/>
</linearGradient>
<linearGradient id="paint2_linear" x1="11.997" x2="31.608" y1="48" y2="94.478" gradientUnits="userSpaceOnUse">
<stop stop-color="#F9E589" offset="0"/>
<stop stop-color="#F6D751" offset="1"/>
</linearGradient>
<clipPath id="clip0">
<rect width="96" height="96" fill="#fff"/>
</clipPath>
</defs>
<g clip-path="url(#clip0)">
<mask id="mask0" x="12" y="0" width="72" height="96" mask-type="alpha" maskUnits="userSpaceOnUse">
<path d="m52 4c0-2.2091 1.7909-4 4-4h24c2.2091 0 4 1.7909 4 4v88c0 2.2091-1.7909 4-4 4h-64c-2.2091 0-4-1.7909-4-4v-40c0-2.2091 1.7909-4 4-4h16v-20c0-2.2091 1.7909-4 4-4h16v-20z" fill="#fff"/>
</mask>
<g mask="url(#mask0)">
<path d="m84 0v96h-32v-96h32z" fill="url(#paint0_linear)"/>
<g filter="url(#filter0_f)">
<path d="m64 28.4v68h-32v-72h28c2.2091 0 4 1.7909 4 4z" fill="#000" fill-opacity=".2"/>
</g>
<g filter="url(#filter1_f)">
<path d="m64 30v68h-32v-72h28c2.2091 0 4 1.7909 4 4z" fill="#000" fill-opacity=".18"/>
</g>
<path d="m64 28v68h-32v-72h28c2.2091 0 4 1.7909 4 4z" fill="url(#paint1_linear)"/>
<path d="m12 48v48h32v-44c0-2.2091-1.7909-4-4-4h-28z" fill="url(#paint2_linear)"/>
</g>
</g>
</svg>
