<svg version="1.1" viewBox="0 5.5 32 20.5" xmlns="http://www.w3.org/2000/svg">
 <title>OfficeCore10_32x_24x_20x_16x_01-22-2019</title>
 <g id="STYLE_COLOR">
  <path d="M12.20245,11.19292l.00031-.0011,6.71765,4.02379,4.00293-1.68451.00018.00068A6.4768,6.4768,0,0,1,25.5,13c.14764,0,.29358.0067.43878.01639a10.00075,10.00075,0,0,0-18.041-3.01381C7.932,10.00215,7.9657,10,8,10A7.96073,7.96073,0,0,1,12.20245,11.19292Z" fill="#0364b8"/>
  <path d="m12.203 11.192-3.1e-4 0.0011a7.9607 7.9607 0 0 0-4.2024-1.1929c-0.0343 0-0.06805 0.00215-0.10223 0.00258a7.9968 7.9968 0 0 0-6.4604 12.57l17.483-7.3572z" fill="#0078d4"/>
  <path d="m25.939 13.016c-0.1452-0.00969-0.29114-0.01639-0.43878-0.01639a6.4768 6.4768 0 0 0-2.5765 0.53178l-1.8e-4 -6.8e-4 -4.0029 1.6845 1.1608 0.69528 11.141 6.6736a6.5002 6.5002 0 0 0-5.2838-9.568z" fill="#1490df"/>
  <path d="m25.546 19.184-6.6258-3.9688-17.483 7.3572a7.9889 7.9889 0 0 0 6.5627 3.4272h17.5a6.4984 6.4984 0 0 0 5.7225-3.4156z" fill="#28a8ea"/>
 </g>
</svg>
