<?xml version="1.0" encoding="UTF-8"?>
<svg width="55" height="55" version="1.1" viewBox="4 8 55 55" xmlns="http://www.w3.org/2000/svg">
 <title>Exchange_64x</title>
 <g transform="translate(-.00010991 3.5)">
  <path d="m55.51 8h-12.207a3.4884 3.4884 0 0 0-2.4678 1.0225l-28.813 28.813a3.4884 3.4884 0 0 0-1.0225 2.4677v12.207a3.4901 3.4901 0 0 0 3.4902 3.4903h12.207a3.4884 3.4884 0 0 0 2.4678-1.0225l28.813-28.813a3.4899 3.4899 0 0 0 1.022-2.4677v-12.207a3.4901 3.4901 0 0 0-3.4902-3.4903z" fill="#28a8ea"/>
  <path d="m55.51 56h-12.207a3.49 3.49 0 0 1-2.4678-1.0222l-5.835-5.8349v-10.903a6.24 6.24 0 0 1 6.24-6.24h10.903l5.8349 5.835a3.49 3.49 0 0 1 1.0222 2.4678v12.207a3.49 3.49 0 0 1-3.49 3.49z" fill="#0078d4"/>
  <path d="m14.49 8h12.207a3.49 3.49 0 0 1 2.4678 1.0222l5.835 5.8349v10.903a6.24 6.24 0 0 1-6.24 6.24h-10.903l-5.8349-5.835a3.49 3.49 0 0 1-1.0222-2.4678v-12.207a3.49 3.49 0 0 1 3.49-3.49z" fill="#50d9ff"/>
  <path d="m33 20.33v26.34a1.7344 1.7344 0 0 1-0.04 0.3999 2.3138 2.3138 0 0 1-2.2901 1.9302h-19.67v-31h19.67a2.326 2.326 0 0 1 2.3301 2.3301z" opacity=".2"/>
  <path d="m34 20.33v24.34a3.3617 3.3617 0 0 1-3.3301 3.3301h-19.67v-31h19.67a3.3418 3.3418 0 0 1 3.3301 3.3301z" opacity=".1"/>
  <path d="m33 20.33v24.34a2.326 2.326 0 0 1-2.3301 2.3301h-19.67v-29h19.67a2.326 2.326 0 0 1 2.3301 2.3301z" opacity=".2"/>
  <path d="m32 20.33v24.34a2.326 2.326 0 0 1-2.3301 2.3301h-18.67v-29h18.67a2.326 2.326 0 0 1 2.3301 2.3301z" opacity=".1"/>
  <rect x="4.0002" y="18" width="28" height="28" rx="2.3333" fill="#0078d4"/>
  <path d="m22.585 26.881h-6.5472v3.8286h6.1454v2.4538h-6.1454v3.9766h6.8961v2.4434h-9.868v-15.167h9.5191z" fill="#fff"/>
 </g>
</svg>
