<?xml version="1.0" encoding="UTF-8"?>
<svg id="Logos" width="100" height="100" version="1.1" viewBox="0 0 100 100" xmlns="http://www.w3.org/2000/svg">
 <circle cx="50" cy="50" r="40" fill="#fff" style="paint-order:stroke fill markers"/>
 <path id="Combined-Shape" d="m11.1 0h38.9a50 50 0 0 1 50 50v38.9a11.1 11.1 0 0 1-11.1 11.1h-38.9a50 50 0 0 1-50-50v-38.9a11.1 11.1 0 0 1 11.1-11.1zm38.9 86.067a36.1 36.1 0 1 0-36.067-36.067 36.1 36.1 0 0 0 36.067 36.067zm0-11.067a25 25 0 1 1 25-25 25 25 0 0 1-25 25zm0-13.9a11.1 11.1 0 1 0-11.1-11.1 11.1 11.1 0 0 0 11.1 11.1z" fill="#4970ff" stroke-width="3.3333"/>
</svg>
