<?xml version="1.0" encoding="UTF-8"?>
<svg width="256" height="256" version="1.1" viewBox="0 0 256 256" xml:space="preserve" xmlns="http://www.w3.org/2000/svg"><defs><clipPath id="clipPath3735"><path d="M 0,147.968 H 235.276 V 0 H 0 Z"/></clipPath></defs><g transform="translate(0 58.709)"><rect y="-58.709" width="256" height="256" fill="#e95316" stroke-width="1.8143"/></g><g transform="matrix(1.3333 0 0 -1.3333 0 256)"><g transform="matrix(1.5397 0 0 1.5397 -14.273 0)"><g transform="translate(1.7873e-8 -6.8196)" clip-path="url(#clipPath3735)"><g transform="translate(30.688 42.057)"><path d="m0 0c1.613 0 2.92 1.307 2.92 2.92 0 1.612-1.307 2.919-2.92 2.919-4.829 0-8.759 3.93-8.759 8.76 0 4.829 3.93 8.758 8.759 8.758 4.83 0 8.759-3.929 8.759-8.758v-58.948h5.84v58.948c0 8.049-6.549 14.597-14.599 14.597-8.049 0-14.598-6.548-14.598-14.597 0-8.051 6.549-14.599 14.598-14.599" fill="#fff"/></g><g transform="translate(38.547 83.727)"><path d="m0 0c1.612 0 2.92 1.307 2.92 2.92 0 4.83 3.929 8.759 8.759 8.759 4.829 0 8.759-3.929 8.759-8.759v-88.938h5.839v88.938c0 8.05-6.548 14.598-14.598 14.598s-14.598-6.548-14.598-14.598c0-1.613 1.307-2.92 2.919-2.92" fill="#fff"/></g><g transform="translate(84.002 -2.2913)"><path d="m0 0v112.4c0 4.83 3.929 8.759 8.759 8.759 4.829 0 8.759-3.929 8.759-8.759 0-1.613 1.307-2.92 2.919-2.92 1.613 0 2.92 1.307 2.92 2.92 0 8.05-6.548 14.598-14.598 14.598s-14.598-6.548-14.598-14.598v-112.4z" fill="#fff"/></g><g transform="translate(103.97 -2.2913)"><path d="m0 0v78.062c0 2.937 3.93 6.866 8.759 6.866s8.759-3.929 8.759-8.759-3.93-8.759-8.759-8.759c-1.613 0-2.92-1.307-2.92-2.92s1.307-2.92 2.92-2.92c8.05 0 14.598 6.549 14.598 14.599s-6.548 14.598-14.598 14.598-14.598-6.548-14.598-12.705v-78.062z" fill="#fff"/></g></g></g></g></svg>
