<svg width="200" height="200" version="1.1" viewBox="0 0 200 200" xmlns="http://www.w3.org/2000/svg">
<rect width="200" height="200" ry="20" fill="#fff" stroke-width="0" style="paint-order:fill markers stroke"/>
<path d="m79.038 75.738v-16.947c0-1.4274.53553-2.4984 1.7838-3.2112l34.074-19.623c4.6385-2.6757 10.169-3.924 15.876-3.924 21.408 0 34.966 16.591 34.966 34.251 0 1.2483 0 2.6757-.17919 4.103l-35.322-20.694c-2.1403-1.2482-4.2818-1.2482-6.4224 0l-44.777 26.045zm79.564 66.007v-40.497c0-2.4983-1.0713-4.282-3.2116-5.5303l-44.776-26.045 14.628-8.385c1.2483-.7128 2.3196-.7128 3.5677 0l34.074 19.623c9.8128 5.7093 16.412 17.839 16.412 29.613 0 13.557-8.0261 26.045-20.693 31.219zm-90.089-35.679-14.628-8.5623c-1.2483-.7128-1.7838-1.7838-1.7838-3.2112v-39.246c0-19.088 14.628-33.539 34.43-33.539 7.4932 0 14.449 2.4984 20.338 6.9577l-35.143 20.338c-2.1402 1.2483-3.2112 3.0321-3.2112 5.5304v51.734l-.0016-.002zm31.487 18.196-20.962-11.773v-24.974l20.962-11.773 20.96 11.773v24.974zm13.469 54.232c-7.4932 0-14.449-2.4986-20.338-6.9572l35.143-20.339c2.1403-1.2481 3.2116-3.0313 3.2116-5.5299v-51.734l14.808 8.5624c1.2481.71279 1.7832 1.7838 1.7832 3.2112v39.246c0 19.087-14.808 33.539-34.607 33.539zm-42.28-39.782-34.074-19.623c-9.8124-5.7095-16.412-17.839-16.412-29.613 0-13.736 8.2061-26.045 20.871-31.219v40.674c0 2.4983 1.071 4.282 3.2112 5.5303l44.599 25.866-14.628 8.3855c-1.2483.71302-2.3193.71302-3.5675 0zm-1.9612 29.257c-20.158 0-34.966-15.165-34.966-33.896 0-1.4273.17896-2.8545.35646-4.2818l35.143 20.337c2.1402 1.2481 4.2821 1.2481 6.4223 0l44.776-25.866v16.948c0 1.4273-.53542 2.4975-1.7838 3.2105l-34.074 19.623c-4.6383 2.6754-10.169 3.9246-15.876 3.9246h.0016zm44.241 21.227c21.585 0 39.602-15.342 43.707-35.679 19.979-5.1739 32.824-23.905 32.824-42.992 0-12.488-5.3519-24.618-14.986-33.359.89222-3.7466 1.4284-7.4932 1.4284-11.238 0-25.51-20.694-44.599-44.6-44.599-4.8156 0-9.4544.7128-14.093 2.3193-8.0287-7.8496-19.089-12.844-31.219-12.844-21.586 0-39.603 15.341-43.707 35.679-19.979 5.1738-32.824 23.905-32.824 42.993 0 12.488 5.3513 24.618 14.985 33.359-.89199 3.7466-1.4274 7.4928-1.4274 11.238 0 25.509 20.694 44.598 44.599 44.598 4.8157 0 9.4543-.71189 14.093-2.3183 8.0269 7.8493 19.088 12.844 31.219 12.844z" stroke-width="1.1341"/>
</svg>
