<svg width="256" height="256" version="1.1" viewBox="0 0 256 256" xmlns="http://www.w3.org/2000/svg">
<rect width="256" height="256" ry="25.6" fill="#fff" stroke-width="0" style="paint-order:fill markers stroke"/>
<path d="m101.17 96.945v-21.693c0-1.8271.68548-3.1979 2.2832-4.1103l43.615-25.117c5.9372-3.4249 13.016-5.0227 20.322-5.0227 27.402 0 44.756 21.236 44.756 43.842 0 1.5979 0 3.4249-.22936 5.2519l-45.212-26.488c-2.7396-1.5977-5.4807-1.5977-8.2207 0l-57.314 33.338zm101.84 84.488v-51.836c0-3.1978-1.3712-5.481-4.1109-7.0788l-57.314-33.338 18.724-10.733c1.5979-.91238 2.9691-.91238 4.5667 0l43.614 25.118c12.56 7.3079 21.007 22.834 21.007 37.904 0 17.353-10.273 33.338-26.488 39.96zm-115.31-45.669-18.724-10.96c-1.5979-.91238-2.2832-2.2832-2.2832-4.1103v-50.235c0-24.432 18.724-42.929 44.071-42.929 9.5912 0 18.495 3.1979 26.032 8.9059l-44.983 26.032c-2.7395 1.5979-4.1103 3.8811-4.1103 7.079v66.22l-.002-.003zm40.303 23.291-26.831-15.07v-31.967l26.831-15.07 26.829 15.07v31.967zm17.24 69.418c-9.5913 0-18.495-3.1982-26.032-8.9052l44.983-26.033c2.7396-1.5976 4.1109-3.88 4.1109-7.0782v-66.22l18.954 10.96c1.5976.91237 2.2825 2.2832 2.2825 4.1103v50.236c0 24.431-18.954 42.93-44.298 42.93zm-54.118-50.92-43.615-25.118c-12.56-7.3082-21.007-22.834-21.007-37.904 0-17.583 10.504-33.338 26.715-39.961v52.062c0 3.1978 1.3708 5.481 4.1103 7.0788l57.087 33.108-18.724 10.733c-1.5979.91267-2.9687.91267-4.5664 0zm-2.5104 37.449c-25.803 0-44.756-19.411-44.756-43.386 0-1.827.22908-3.6537.45626-5.4807l44.983 26.032c2.7395 1.5976 5.4811 1.5976 8.2206 0l57.314-33.108v21.693c0 1.8269-.68534 3.1968-2.2832 4.1094l-43.615 25.118c-5.9371 3.4245-13.016 5.0235-20.322 5.0235h.002zm56.629 27.171c27.629 0 50.691-19.637 55.945-45.669 25.573-6.6226 42.015-30.598 42.015-55.03 0-15.985-6.8505-31.511-19.181-42.7 1.142-4.7956 1.8284-9.5912 1.8284-14.385 0-32.652-26.489-57.087-57.087-57.087-6.164 0-12.102.91238-18.039 2.9687-10.277-10.048-24.434-16.441-39.961-16.441-27.63 0-50.691 19.637-55.945 45.669-25.574 6.6224-42.015 30.599-42.015 55.031 0 15.985 6.8496 31.511 19.18 42.7-1.1417 4.7956-1.8271 9.5908-1.8271 14.385 0 32.652 26.488 57.086 57.087 57.086 6.1641 0 12.101-.91122 18.039-2.9674 10.274 10.047 24.432 16.44 39.961 16.44z" stroke-width="1.4517"/>
</svg>
