<?xml version="1.0" encoding="UTF-8"?>
<svg width="200" height="200" version="1.1" viewBox="0 0 200 200" xmlns="http://www.w3.org/2000/svg">
 <g>
  <path d="m39.32 0.70915c-11.387 0-20.655 9.2756-20.655 20.662v158.68c0 11.386 9.2689 20.662 20.655 20.662h121.33c11.387 0 20.655-9.2752 20.655-20.662v-130.48s0.32491-3.8206-1.3336-7.5384c-1.5547-3.4849-4.0885-5.9105-4.0885-5.9105a3.393 3.393 0 0 0-0.0189-0.0256l-30.104-29.527a3.393 3.393 0 0 0-0.0501-0.05s-2.5701-2.4474-6.3801-4.0823c-4.486-1.925-9.1099-1.7218-9.1099-1.7218l0.0689-6e-3z" color="#000000" color-rendering="auto" dominant-baseline="auto" fill="#ff2116" image-rendering="auto" shape-rendering="auto" solid-color="#000000" style="font-feature-settings:normal;font-variant-alternates:normal;font-variant-caps:normal;font-variant-ligatures:normal;font-variant-numeric:normal;font-variant-position:normal;isolation:auto;mix-blend-mode:normal;paint-order:markers fill stroke;shape-padding:0;text-decoration-color:#000000;text-decoration-line:none;text-decoration-style:solid;text-indent:0;text-orientation:mixed;text-transform:none;white-space:normal"/>
  <path d="m39.33 7.4962h90.974a3.393 3.393 0 0 0 0.0689 0s3.6378 0.0353 6.2987 1.1771c2.561 1.099 4.377 2.7625 4.389 2.7737 5e-5 3e-5 0.0125 0.0128 0.0125 0.0128l30.028 29.459s1.8092 1.91 2.686 3.8757c0.70775 1.5865 0.75133 4.4892 0.75133 4.4892a3.393 3.393 0 0 0-6e-3 0.14393v130.62c0 7.7447-6.1237 13.875-13.868 13.875h-121.33c-7.7447 0-13.868-6.1296-13.868-13.875v-158.68c0-7.7451 6.1237-13.875 13.868-13.875z" color="#000000" color-rendering="auto" dominant-baseline="auto" fill="#f5f5f5" image-rendering="auto" shape-rendering="auto" solid-color="#000000" style="font-feature-settings:normal;font-variant-alternates:normal;font-variant-caps:normal;font-variant-ligatures:normal;font-variant-numeric:normal;font-variant-position:normal;isolation:auto;mix-blend-mode:normal;paint-order:markers fill stroke;shape-padding:0;text-decoration-color:#000000;text-decoration-line:none;text-decoration-style:solid;text-indent:0;text-orientation:mixed;text-transform:none;white-space:normal"/>
  <path d="m59.288 119.79c-4.6697-4.6697 0.38257-11.087 14.094-17.901l8.6273-4.2874 3.361-7.3538c1.8486-4.0446 4.6075-10.644 6.131-14.665l2.77-7.3116-1.9089-5.411c-2.3471-6.6533-3.1841-16.652-1.6949-20.247 2.0171-4.8698 8.6243-4.3701 11.24 0.84999 2.0429 4.0769 1.834 11.46-0.58757 20.771l-1.9853 7.6336 1.7487 2.9686c0.96181 1.6327 3.7712 5.5095 6.2431 8.6151l4.6458 5.779 5.7811-0.7544c18.365-2.3965 24.656 1.6766 24.656 7.5166 0 7.3706-14.421 7.979-26.531-0.52647-2.7247-1.9137-4.5959-3.8148-4.5959-3.8148s-7.5864 1.5444-11.322 2.5512c-3.8555 1.0392-5.779 1.69-11.427 3.5964 0 0-1.9816 2.8777-3.2728 4.9697-4.804 7.7831-10.413 14.233-14.419 16.581-4.4851 2.6284-9.187 2.8076-11.554 0.44024zm7.3284-2.618c2.6249-1.6223 7.9378-7.906 11.616-13.738l1.489-2.3612-6.78 3.4089c-10.472 5.265-15.262 10.227-12.771 13.229 1.3994 1.6861 3.0734 1.5463 6.4464-0.5383zm68.019-19.092c2.5674-1.7983 2.1947-5.4222-0.70789-6.8833-2.2589-1.1371-4.0796-1.3707-9.9478-1.2841-3.6061 0.24588-9.4048 0.97261-10.388 1.1937 0 0 3.1856 2.2016 4.5998 3.0108 1.8827 1.0753 6.4579 3.0714 9.7983 4.0939 3.295 1.0086 5.2009 0.90221 6.6451-0.13111zm-27.349-11.367c-1.5538-1.6334-4.1959-5.0424-5.8713-7.5757-2.1912-2.8737-3.29-4.9011-3.29-4.9011s-1.6016 5.1514-2.9155 8.2513l-4.0993 10.132-1.1885 2.2983s6.3186-2.0718 9.5334-2.9115c3.405-0.88939 10.316-2.2483 10.316-2.2483zm-8.8137-35.345c0.39632-3.3259 0.56452-6.6469-0.50406-8.3216-2.964-3.2402-6.5415-0.53814-5.9355 7.1653 0.20388 2.5915 0.84768 7.0215 1.7084 9.752l1.5649 4.9644 1.1014-3.7391c0.60578-2.0565 1.535-6.476 2.0648-9.8211z" fill="#ff2116" stroke-width=".84817"/>
  <g fill="#2c2c2c">
   <path d="m67.229 141.41h7.5815c2.4224 0 4.3888 0.232 5.8991 0.696 1.5104 0.448 2.7814 1.458 3.8132 3.028 1.0318 1.555 1.5477 3.432 1.5477 5.63 0 2.018-0.4187 3.753-1.2561 5.204-0.8374 1.45-1.9664 2.497-3.387 3.14-1.4056 0.643-3.5739 0.964-6.5048 0.964h-2.6243v11.956h-5.0693zm5.0693 3.926v10.676h2.5122c2.243 0 3.7907-0.418 4.6431-1.256 0.8673-0.837 1.3009-2.198 1.3009-4.082 0-1.406-0.2841-2.542-0.8523-3.409-0.5683-0.883-1.1963-1.421-1.8842-1.615-0.6729-0.21-1.7421-0.315-3.2075-0.315z"/>
   <path d="m89.951 141.41h6.8861c3.3347 0 5.9967 0.591 7.9857 1.772 2.003 1.182 3.514 2.939 4.53 5.271 1.032 2.333 1.548 4.92 1.548 7.761 0 2.991-0.463 5.66-1.391 8.008-0.912 2.333-2.317 4.217-4.216 5.652-1.885 1.436-4.576 2.154-8.0754 2.154h-7.2674zm5.0693 4.06v22.498h2.1084c2.9461 0 5.0841-1.017 6.4151-3.051 1.331-2.048 1.996-4.777 1.996-8.187 0-7.507-2.804-11.26-8.4111-11.26z"/>
   <path d="m115.77 141.41h17.003v4.06h-11.933v9.152h9.555v4.06h-9.555v13.346h-5.07z"/>
  </g>
 </g>
</svg>
