<?xml version="1.0" encoding="UTF-8"?>
<svg width="180" height="180" version="1.1" xmlns="http://www.w3.org/2000/svg">
<rect x="5.4632" y="5.4632" width="169.07" height="169.07" fill="#535353" stroke="#78afaf" stroke-miterlimit="14.5" stroke-width="10.926" style="paint-order:markers fill stroke"/>
<path d="m135.25 44.752-9.024 9.024c9.216 9.28 14.976 22.08 14.976 36.224a51.2 51.2 0 01-51.2 51.2 51.2 51.2 0 01-51.2-51.2c0-26.112 19.52-47.616 44.8-50.752v12.928c-18.176 3.072-32 18.816-32 37.824a38.4 38.4 0 0038.4 38.4 38.4 38.4 0 0038.4-38.4c0-10.624-4.288-20.224-11.264-27.136l-9.024 9.024c4.608 4.672 7.488 11.072 7.488 18.112a25.6 25.6 0 01-25.6 25.6 25.6 25.6 0 01-25.6-25.6c0-11.904 8.192-21.824 19.2-24.704v13.696c-3.84 2.24-6.4 6.272-6.4 11.008a12.8 12.8 0 0012.8 12.8 12.8 12.8 0 0012.8-12.8c0-4.736-2.56-8.832-6.4-11.008v-52.992h-6.4a64 64 0 00-64 64 64 64 0 0064 64 64 64 0 0064-64c0-17.664-7.168-33.664-18.752-45.248z" fill="#78afaf" stroke-width="6.4"/>
</svg>
