<svg width="256" height="256" preserveAspectRatio="xMidYMid" version="1.0" viewBox="0 0 256 256" xmlns="http://www.w3.org/2000/svg">
<rect width="256" height="256" ry="20" fill="#fff" stroke-width="0" style="paint-order:fill markers stroke"/>
<path d="m22.171 85.899c-5.2097 1.6962-10.177 4.6039-12.964 7.6328-9.4501 10.056-7.9962 28.229 2.9077 35.377 2.5442 1.575 9.4501 4.4827 15.508 6.3 14.054 4.2404 16.356 5.6943 16.356 10.904s-3.6346 7.7539-10.904 7.7539c-6.7847-.12116-13.206-2.4231-18.9-6.6635-2.3019-1.8173-4.3616-3.0289-4.6039-2.9077-.12115.24231-2.4231 3.15-4.9673 6.3l-4.6039 5.8154 2.6654 2.7866c1.575 1.575 6.0577 4.4827 10.177 6.3 6.6635 3.15 8.8443 3.5135 19.627 3.5135 13.812 0 17.689-1.4538 24.11-9.4501 3.5135-4.4827 3.7558-5.3308 3.7558-14.781 0-8.3597-.48462-10.662-2.5442-13.569-3.5135-4.725-10.056-8.2385-23.746-12.479-7.7539-2.4231-12.237-4.4827-13.085-6.0577-5.5731-10.419 7.6328-14.902 22.171-7.3904 3.9981 2.0596 7.3904 3.6346 7.5116 3.5135.12115-.24231 1.9385-3.2712 4.2404-6.9058l4.1193-6.4212-3.0289-2.3019c-7.2693-5.6943-26.291-9.8135-33.802-7.2693z"/>
<path d="m98.014 86.747c-20.475 6.5424-32.469 26.775-28.593 48.704 1.6962 9.5712 4.725 15.75 11.146 22.777 7.3904 7.9962 16.114 11.752 27.381 11.873 9.3289.12115 20.839-2.9077 20.839-5.452 0-.60577-1.8173-3.877-3.877-7.1481-2.7866-4.1193-4.6039-5.8154-5.8154-5.3308-.96924.36347-4.4827.96924-7.8751 1.3327-8.4808.72693-15.75-3.0289-20.596-11.025-3.15-5.2096-3.6346-7.1481-3.6346-14.66 0-7.5116.48462-9.4501 3.6346-14.539 6.1789-10.056 15.992-13.448 27.987-9.6924 2.1808.72693 3.2712-.24231 6.4212-5.3308 2.0596-3.3923 3.7558-6.7847 3.7558-7.3904 0-2.0596-8.8443-4.9673-16.962-5.5731-5.0885-.24231-9.9347.24231-13.812 1.4539z"/>
<path d="m140.9 127.94v43.252l6.3-.60577c7.9962-.84809 12.115-4.9674 11.752-11.752-.12115-2.4231.24231-5.3308.72693-6.5424s.60577-2.5442.12115-2.9077c-.36346-.48462.12116-1.6962 1.2116-2.9077 1.4539-1.575 1.575-2.6654.60578-4.4827-1.6962-3.0289-.60578-5.9366 2.4231-6.9058 2.9077-.96924 4.725-4.2404 3.6346-6.6635-.36346-.96924-2.9077-4.9674-5.452-8.8443-4.4827-6.5424-4.725-7.2693-3.3923-11.025 1.2115-3.15 1.0904-5.2097-.48462-10.54-3.3923-11.389-4.9674-13.206-11.631-13.206h-5.8154z"/>
<path d="m178.46 127.82v43.01h16.962v-28.229l.12116-28.108 5.3308 8.4808c2.9077 4.6039 7.7539 12.479 10.904 17.446l5.5731 8.9654 10.54-17.083c5.8154-9.4501 10.783-17.083 11.146-17.204.36346 0 .60577 12.358.60577 27.502v27.623l8.2385.36347 8.1174.36346v-86.141h-17.81l-10.419 17.689-10.298 17.567-10.419-17.567-10.54-17.689h-18.052z"/>
</svg>
