<svg width="256" height="256" version="1.1" viewBox="0 0 256 256" xml:space="preserve" xmlns="http://www.w3.org/2000/svg">
<path d="m205.41 256h-154.83c-27.938 0-50.586-22.647-50.586-50.586v-154.83c0-27.938 22.647-50.586 50.586-50.586h154.83c27.938 0 50.586 22.647 50.586 50.586v154.83c0 27.938-22.647 50.586-50.586 50.586z" fill="#032d42" fill-rule="evenodd" stroke-linecap="round"/><path d="m128.54 41.958c-50.907-.10524-92.262 41.077-92.368 91.984-.05404 25.418 10.391 49.729 28.865 67.186 6.5052 6.1952 16.558 6.7157 23.671 1.2288 23.319-17.354 55.265-17.354 78.583 0 7.1822 5.5012 17.311 4.9095 23.805-1.3881 36.927-35.044 38.457-93.386 3.4133-130.31-17.192-18.116-41-28.481-65.971-28.723m-.54045 138.18c-24.678.66845-45.224-18.796-45.892-43.474-.02275-.80214-.02275-1.6043 0-2.4036 0-25.344 20.545-45.892 45.892-45.892 25.347 0 45.892 20.545 45.892 45.892.65991 24.678-18.81 45.218-43.489 45.881-.80214.0199-1.6043.0199-2.4036-.003" fill="#62d84e" fill-rule="evenodd" stroke-linecap="round"/>
</svg>
