<svg version="1.1"
    xmlns="http://www.w3.org/2000/svg"
    xmlns:xlink="http://www.w3.org/1999/xlink" width="512" height="512" viewBox="0 0 512 512">
    <title>server mail icon</title>
    <desc>server mail icon from the IconExperience.com G-Collection. Copyright by INCORS GmbH (www.incors.com).</desc>
    <defs>
        <linearGradient x1="32" y1="0" x2="287.9987" y2="0" gradientUnits="userSpaceOnUse" id="color-1">
            <stop offset="0" stop-color="#717f8f"/>
            <stop offset="1" stop-color="#546472"/>
        </linearGradient>
        <linearGradient x1="48" y1="64" x2="272.00055" y2="64" gradientUnits="userSpaceOnUse" id="color-2">
            <stop offset="0" stop-color="#6ac2f5"/>
            <stop offset="0.6" stop-color="#41b1f2"/>
            <stop offset="1" stop-color="#17a0ee"/>
        </linearGradient>
        <linearGradient x1="112" y1="240" x2="429.3995" y2="512.0005" gradientUnits="userSpaceOnUse" id="color-3">
            <stop offset="0" stop-color="#eaf6fe"/>
            <stop offset="1" stop-color="#c8e8fb"/>
        </linearGradient>
        <linearGradient x1="112" y1="353.25" x2="175.0825" y2="512.125" gradientUnits="userSpaceOnUse" id="color-4">
            <stop offset="0" stop-color="#c7e8fb"/>
            <stop offset="1" stop-color="#a3d9f9"/>
        </linearGradient>
        <linearGradient x1="112" y1="240" x2="179.319" y2="397.0775" gradientUnits="userSpaceOnUse" id="color-5">
            <stop offset="0" stop-color="#ffffff"/>
            <stop offset="1" stop-color="#d6eefc"/>
        </linearGradient>
        <linearGradient x1="480" y1="422.25" x2="479.913" y2="251.4315" gradientUnits="userSpaceOnUse" id="color-6">
            <stop offset="0" stop-color="#89cff7"/>
            <stop offset="1" stop-color="#b0dffa"/>
        </linearGradient>
    </defs>
    <g fill="none" fill-rule="evenodd" stroke="none" stroke-width="1" stroke-linecap="butt" stroke-linejoin="miter" stroke-miterlimit="10" stroke-dasharray="" stroke-dashoffset="0" font-family="none" font-weight="none" font-size="none" text-anchor="none" style="mix-blend-mode: normal">
        <path d="M48,0l224,0c9,0 16,7 16,16l0,368l-256,0l0,-368c0,-9 7,-16 16,-16z" id="curve7" fill="url(#color-1)"/>
        <path d="M48,64l224,0l0,64l-224,0z M48,144l224,0l0,64l-224,0z M48,224l224,0l0,64l-224,0z M48,304l224,0l0,64l-224,0z" id="curve6" fill="url(#color-2)"/>
        <path d="M96,64l128,0l0,16l-128,0z M96,144l128,0l0,16l-128,0z M96,224l128,0l0,16l-128,0z M96,304l128,0l0,16l-128,0z" id="curve5" fill="#98e957"/>
        <path d="M256,16c9,0 16,7 16,16c0,9 -7,16 -16,16c-9,0 -16,-7 -16,-16c0,-9 7,-16 16,-16z" id="curve4" fill="#98e957"/>
        <path d="M123.5,240l345,0c6.5,0 11.5,5 11.5,11.5l0,249c0,6.5 -5,11.5 -11.5,11.5l-345,0c-6.5,0 -11.5,-5 -11.5,-11.5l0,-249c0,-6.5 5,-11.5 11.5,-11.5z" id="curve3" fill="url(#color-3)"/>
        <path d="M123.5,512l345,0c6.5,0 11.5,-5 11.5,-11.5l-161.5,-139c-13,-11 -32,-11 -45,0l-161.5,139c0,6.5 5,11.5 11.5,11.5z" id="curve2" fill="url(#color-4)"/>
        <path d="M123.5,240l345,0c6.5,0 11.5,5 11.5,11.5l-161.5,139c-13,11 -32,11 -45,0l-161.5,-139c0,-6.5 5,-11.5 11.5,-11.5z" id="curve1" fill="url(#color-5)"/>
        <path d="M112,251.5l161.5,139c13,11 32,11 45,0l161.5,-139l0,9.5l-145,145.5c-21,21 -57,21 -78,0l-145,-145.5z" id="curve0" fill="url(#color-6)"/>
    </g>
</svg>