<svg version="1.1" viewBox="0 0 96 96" xmlns="http://www.w3.org/2000/svg">
<g>
<rect class="cls-2" width="96" height="96" fill="#004f9f"/>
<path class="cls-1" d="m63.75 64.27s0-.02 0-.02l-15.29-15.29v24.14c0 4.84-3.93 8.77-8.77 8.77s-8.77-3.93-8.77-8.77v-24.47l-15.18 15.18s0 0 0 0v14.39c3.09 10.3 12.64 17.8 23.95 17.8s21.11-7.71 24.07-18.22v-13.51z" fill="#fff"/>
<path class="cls-1" d="m56.32,0C44.86,0,35.21,7.71,32.25,18.22v13.51s0,.02,0,.02l15.29,15.29v-24.14c0-4.84,3.93-8.77,8.77-8.77s8.77,3.93,8.77,8.77v24.47l15.18-15.18s.02-.06.03-.1v-14.21C77.22,7.54,67.66,0,56.32,0Z" fill="#fff"/>
</g>
</svg>
