<?xml version="1.0" encoding="UTF-8"?>
<svg width="500" height="500" preserveAspectRatio="xMidYMid" version="1.1" viewBox="0 0 500 500" xmlns="http://www.w3.org/2000/svg">
 <g>
  <path d="m328.75 382.33h-89.721c-8.6 35.37-27.175 63.927-59.18 82.087-24.881 14.114-51.698 18.899-80.239 14.29-52.55-8.474-95.519-55.781-99.302-109.05-4.2812-60.345 37.196-113.98 92.481-126.03 3.8166 13.861 7.6746 27.855 11.491 41.683-50.723 25.879-68.279 58.486-54.083 99.259 12.497 35.881 47.995 55.548 86.539 47.942 39.362-7.766 59.208-40.479 56.785-92.978 37.315 0 74.662-0.387 111.98 0.19 14.573 0.229 25.822-1.282 36.8-14.13 18.073-21.139 51.341-19.232 70.806 0.733 19.893 20.405 18.94 53.235-2.111 72.779-20.31 18.857-52.398 17.85-71.4-2.47-3.905-4.187-6.983-9.161-10.846-14.306z" fill="#08c"/>
  <path d="m293.72 171.02c14.653 25.85 29.531 52.089 44.276 78.088 74.529-23.058 130.72 18.199 150.88 62.37 24.351 53.356 7.704 116.55-40.116 149.47-49.085 33.79-111.16 28.017-154.65-15.39 11.083-9.278 22.221-18.597 34.122-28.553 42.953 27.82 80.521 26.51 108.41-6.434 23.783-28.104 23.268-70.008-1.206-97.522-28.243-31.75-66.074-32.719-111.8-2.241-18.969-33.653-38.268-67.038-56.637-100.94-6.195-11.424-13.032-18.054-26.993-20.471-23.313-4.042-38.364-24.062-39.268-46.491-0.888-22.182 12.181-42.234 32.607-50.045 20.234-7.741 43.978-1.4937 57.588 15.709 11.123 14.055 14.657 29.874 8.804 47.209-1.627 4.834-3.735 9.511-6.018 15.239z" fill="#333"/>
  <path d="m234.33 212.36c-20.798 34.963-40.724 68.821-61.065 102.42-5.225 8.627-7.81 15.655-3.637 26.621 11.523 30.293-4.732 59.773-35.28 67.775-28.81 7.549-56.879-11.385-62.595-42.229-5.0653-27.301 16.121-54.064 46.223-58.332 2.521-0.36 5.096-0.401 9.334-0.719l45.788-76.779c-28.798-28.635-45.939-62.107-42.145-103.59 2.681-29.319 14.211-54.657 35.284-75.424 40.362-39.77 101.94-46.209 149.46-15.684 45.643 29.321 66.547 86.435 48.728 135.32-13.435-3.642-26.965-7.316-41.837-11.35 5.594-27.179 1.456-51.584-16.874-72.492-12.111-13.804-27.652-21.039-45.321-23.705-35.426-5.3515-70.207 17.407-80.527 52.178-11.715 39.46 6.016 71.696 54.463 95.987z" fill="#e95316"/>
 </g>
</svg>
